<?xml version="1.0" encoding="UTF-8"?>
<svg class="illustration styles_illustrationTablet__1DWOa" width="700" height="700" data-name="Layer 1" version="1.1" viewBox="0 0 724.51724 929.71895" xmlns="http://www.w3.org/2000/svg" xmlns:xlink="http://www.w3.org/1999/xlink">
<defs>
<linearGradient id="d" x1="200.4" x2="193.36" y1="156.09" y2=".32" gradientTransform="rotate(180 198.54 115.08)" gradientUnits="userSpaceOnUse">
<stop stop-color="#fff" stop-opacity="0" offset="0"/>
<stop stop-color="#fff" offset=".95"/>
</linearGradient>
<linearGradient id="am" x1="420.79" x2="518.18" y1="115.42" y2="130.09" gradientTransform="matrix(-2.203 0 0 -2.203 283.72 -14.73)" xlink:href="#d"/>
<linearGradient id="ab" x1="354" x2="355.76" y1="-18.75" y2="124.99" gradientTransform="matrix(-2.203 0 0 -2.203 283.72 -14.73)" xlink:href="#d"/>
<linearGradient id="s" x1="311.92" x2="302.53" y1="260.14" y2="55.38" gradientTransform="matrix(-2.203 0 0 -2.203 283.7 -14.73)" xlink:href="#d"/>
<linearGradient id="a" x1="261.62" x2="259.72" y1="383.07" y2="281.75" gradientTransform="matrix(1,0,0,-1,-82.88,448.43)" gradientUnits="userSpaceOnUse">
<stop stop-color="#fff" stop-opacity="0" offset="0"/>
<stop stop-color="#fff" offset=".99"/>
</linearGradient>
<linearGradient id="l" x1="255" x2="253.1" y1="383.18" y2="281.87" gradientTransform="matrix(2.203 0 0 2.203 -101.11 18.585)" xlink:href="#a"/>
<linearGradient id="k" x1="307.07" x2="305.17" y1="382.22" y2="280.9" gradientTransform="matrix(2.203 0 0 2.203 -101.11 18.585)" xlink:href="#a"/>
<linearGradient id="j" x1="364.93" x2="363.04" y1="381.12" y2="279.82" gradientTransform="matrix(2.203 0 0 2.203 -101.11 18.585)" xlink:href="#a"/>
<linearGradient id="i" x1="269.97" x2="268.07" y1="382.9" y2="281.59" gradientTransform="matrix(2.203 0 0 2.203 -101.11 18.585)" xlink:href="#a"/>
<linearGradient id="aw" x1="282.11" x2="280.2" y1="382.69" y2="281.37" gradientTransform="matrix(2.203 0 0 2.203 -101.11 18.585)" xlink:href="#a"/>
<linearGradient id="av" x1="316" x2="314.11" y1="382.05" y2="280.73" gradientTransform="matrix(2.203 0 0 2.203 -101.11 18.585)" xlink:href="#a"/>
<linearGradient id="au" x1="278.22" x2="276.32" y1="382.75" y2="281.44" gradientTransform="matrix(2.203 0 0 2.203 -101.11 18.585)" xlink:href="#a"/>
<linearGradient id="at" x1="321.5" x2="319.61" y1="381.94" y2="280.63" gradientTransform="matrix(2.203 0 0 2.203 -101.11 18.585)" xlink:href="#a"/>
<linearGradient id="as" x1="261.62" x2="259.72" y1="356.88" y2="255.56" gradientTransform="matrix(2.203 0 0 2.203 -101.11 18.585)" xlink:href="#a"/>
<linearGradient id="ar" x1="255" x2="253.1" y1="357.01" y2="255.69" gradientTransform="matrix(2.203 0 0 2.203 -101.11 18.585)" xlink:href="#a"/>
<linearGradient id="aq" x1="307.07" x2="305.17" y1="356.03" y2="254.71" gradientTransform="matrix(2.203 0 0 2.203 -101.11 18.585)" xlink:href="#a"/>
<linearGradient id="ap" x1="364.93" x2="363.04" y1="354.95" y2="253.63" gradientTransform="matrix(2.203 0 0 2.203 -101.11 18.585)" xlink:href="#a"/>
<linearGradient id="ao" x1="269.97" x2="268.07" y1="356.73" y2="255.41" gradientTransform="matrix(2.203 0 0 2.203 -101.11 18.585)" xlink:href="#a"/>
<linearGradient id="an" x1="282.11" x2="280.2" y1="356.5" y2="255.18" gradientTransform="matrix(2.203 0 0 2.203 -101.11 18.585)" xlink:href="#a"/>
<linearGradient id="al" x1="316" x2="314.11" y1="355.87" y2="254.55" gradientTransform="matrix(2.203 0 0 2.203 -101.11 18.585)" xlink:href="#a"/>
<linearGradient id="ak" x1="278.22" x2="276.32" y1="356.57" y2="255.26" gradientTransform="matrix(2.203 0 0 2.203 -101.11 18.585)" xlink:href="#a"/>
<linearGradient id="aj" x1="321.5" x2="319.61" y1="355.77" y2="254.45" gradientTransform="matrix(2.203 0 0 2.203 -101.11 18.585)" xlink:href="#a"/>
<linearGradient id="ai" x1="261.62" x2="259.72" y1="330.7" y2="229.39" gradientTransform="matrix(2.203 0 0 2.203 -101.11 18.585)" xlink:href="#a"/>
<linearGradient id="ah" x1="255" x2="253.1" y1="330.83" y2="229.51" gradientTransform="matrix(2.203 0 0 2.203 -101.11 18.585)" xlink:href="#a"/>
<linearGradient id="ag" x1="307.07" x2="305.17" y1="329.85" y2="228.54" gradientTransform="matrix(2.203 0 0 2.203 -101.11 18.585)" xlink:href="#a"/>
<linearGradient id="af" x1="364.93" x2="363.04" y1="328.77" y2="227.45" gradientTransform="matrix(2.203 0 0 2.203 -101.11 18.585)" xlink:href="#a"/>
<linearGradient id="ae" x1="269.97" x2="268.07" y1="330.55" y2="229.23" gradientTransform="matrix(2.203 0 0 2.203 -101.11 18.585)" xlink:href="#a"/>
<linearGradient id="ad" x1="282.11" x2="280.2" y1="330.32" y2="229" gradientTransform="matrix(2.203 0 0 2.203 -101.11 18.585)" xlink:href="#a"/>
<linearGradient id="ac" x1="316" x2="314.11" y1="329.68" y2="228.36" gradientTransform="matrix(2.203 0 0 2.203 -101.11 18.585)" xlink:href="#a"/>
<linearGradient id="aa" x1="278.22" x2="276.32" y1="330.39" y2="229.07" gradientTransform="matrix(2.203 0 0 2.203 -101.11 18.585)" xlink:href="#a"/>
<linearGradient id="z" x1="321.5" x2="319.61" y1="329.58" y2="228.26" gradientTransform="matrix(2.203 0 0 2.203 -101.11 18.585)" xlink:href="#a"/>
<linearGradient id="c" x1="333.51" x2="350.87" y1="249.74" y2="249.74" gradientUnits="userSpaceOnUse">
<stop stop-color="#e5c6d6" offset="0"/>
<stop stop-color="#ead4d0" offset=".42"/>
<stop stop-color="#f0e9cb" offset="1"/>
</linearGradient>
<linearGradient id="y" x1="267.38" x2="284.32" y1="249.25" y2="249.25" gradientTransform="matrix(2.203 0 0 2.203 -283.7 14.73)" xlink:href="#c"/>
<linearGradient id="x" x1="322.22" x2="330.07" y1="181.36" y2="181.36" gradientTransform="matrix(2.203 0 0 2.203 -283.7 14.73)" xlink:href="#c"/>
<linearGradient id="w" x1="287.94" x2="295.96" y1="179.86" y2="179.86" gradientTransform="matrix(2.203 0 0 2.203 -283.7 14.73)" xlink:href="#c"/>
<linearGradient id="v" x1="301.28" x2="317.79" y1="200.39" y2="200.39" gradientTransform="matrix(2.203 0 0 2.203 -283.7 14.73)" xlink:href="#c"/>
<linearGradient id="b" x1="280.58" x2="334.7" y1="279.54" y2="279.54" gradientUnits="userSpaceOnUse">
<stop stop-color="#010101" stop-opacity="0" offset="0"/>
<stop stop-color="#010101" offset=".95"/>
</linearGradient>
<linearGradient id="u" x1="197.45" x2="254.83" y1="246.75" y2="246.75" gradientTransform="matrix(2.203 0 0 2.203 -101.11 18.585)" xlink:href="#b"/>
<linearGradient id="t" x1="308.92" x2="307.82" y1="236.45" y2="294.75" gradientTransform="matrix(2.203 0 0 2.203 -283.7 14.73)" xlink:href="#b"/>
<linearGradient id="r" x1="307.68" x2="310.76" y1="333.3" y2="306.9" gradientTransform="matrix(2.203 0 0 2.203 -283.7 14.73)" xlink:href="#b"/>
<linearGradient id="q" x1="306.62" x2="307.5" y1="291.13" y2="326.77" gradientTransform="matrix(-2.203 0 0 -2.203 283.7 -14.752)" xlink:href="#b"/>
<linearGradient id="p" x1="201.67" x2="201.96" y1="322.04" y2="395.67" gradientTransform="matrix(2.203 0 0 2.203 -283.7 14.73)" xlink:href="#b"/>
<linearGradient id="o" x1="218.42" x2="227.8" y1="332.91" y2="369" gradientTransform="matrix(2.203 0 0 2.203 -283.7 14.73)" xlink:href="#b"/>
<linearGradient id="n" x1="194.82" x2="178.98" y1="330.93" y2="369.35" gradientTransform="matrix(2.203 0 0 2.203 -283.7 14.73)" xlink:href="#b"/>
<linearGradient id="m" x1="207.73" x2="189.25" y1="349.86" y2="403.54" gradientTransform="matrix(2.203 0 0 2.203 -283.7 14.73)" xlink:href="#b"/>
<linearGradient id="h" x1="200.4" x2="193.36" y1="156.09" y2=".32" gradientTransform="matrix(-2.203 0 0 -2.203 283.7 -14.73)" gradientUnits="userSpaceOnUse" xlink:href="#d"/>
<linearGradient id="g" x1="261.62" x2="259.72" y1="383.07" y2="281.75" gradientTransform="matrix(2.203 0 0 -2.203 -283.7 1006.5)" gradientUnits="userSpaceOnUse" xlink:href="#a"/>
<linearGradient id="f" x1="333.51" x2="350.87" y1="249.74" y2="249.74" gradientTransform="matrix(2.203 0 0 2.203 -283.7 14.73)" gradientUnits="userSpaceOnUse" xlink:href="#c"/>
<linearGradient id="e" x1="280.58" x2="334.7" y1="279.54" y2="279.54" gradientTransform="matrix(2.203 0 0 2.203 -283.7 14.73)" gradientUnits="userSpaceOnUse" xlink:href="#b"/>
</defs>
<path d="m786.81 605.14c-26.59 38.134-63.887 67.478-93.386 103.54-43.311 52.872-71.334 121.52-129.98 156.79-27.736 16.655-59.834 24.101-91.293 31.327-50.559 11.632-102.95 23.264-153.9 13.438-39.059-7.5123-74.506-27.207-109.23-46.638l-27.472-15.421c-6.0583-3.4367-12.183-6.8073-18.307-10.244l-17.844-10.002c-52.388-29.52-104.44-60.318-148.59-101.01-49.193-45.162-88.297-104.6-96.426-170.98-9.4289-76.709 26.656-157.27 90.147-201.36 34.83-24.233 76.356-37.716 110.57-62.852 53.996-39.654 83.714-103.08 120.79-158.79 68.712-103.3 200.85-152.73 312.12-79.308 43.245 28.507 75.96 70.849 99.995 116.76 20.312 38.707 35.248 80.696 62.257 115.06 30.842 39.258 75.74 66.443 102.73 108.45 40.425 62.874 30.644 149.85-12.183 211.22z" fill="#02ccd3" opacity=".24" stroke-width="2.203" style="isolation:isolate"/>
<path d="m216.07 840.2c-3.2384 3.5468 2.0708 8.4816 6.609 10.2a260.2 260.2 0 0 0 92.747 17.183l-5.3974 9.1866a289.52 289.52 0 0 0 152.01 0.79309l-7.6665-11.896 44.523-2.203c7.0717-0.33045 31.878 2.5775 36.57-3.7011 13.504-18.087-41.461-18.792-47.365-19.034q-87.966-3.679-176.04-2.8419-24.013 0.2203-48.026 0.77105c-7.5784 0.26436-43.245-3.4808-47.96 1.5421z" fill="#02ccd3" opacity=".42" stroke-width="2.203" style="isolation:isolate"/>
<path d="m466.38 677.2q-1.7844 35.248-4.2518 70.629a201.27 201.27 0 0 1 -4.6263 35.424 103.21 103.21 0 0 1 -7.314 20.069c-1.3438 2.7538-3.2605 5.7499-6.2786 6.0583-3.8112 0.39655-6.4548-3.679-7.8207-7.2699-6.8073-17.624-6.8073-36.922-7.2479-55.78q-0.37451-14.628-1.1676-29.278c-0.63888-11.786-1.9166-24.542-9.8915-33.265-2.4233-2.6436-5.3753-4.8026-7.7546-7.5123-9.7153-11.015-6.8073-29.586 3.657-39.963 8.1291-8.041 31.723-18.66 43.113-12.006 13.526 7.8868 10.222 40.183 9.5831 52.894z" fill="#606161" stroke-width="2.203"/>
<path d="m398.18 636.86a30.027 30.027 0 0 1 4.5602 18.109c-0.55075 19.144-11.918 36.085-17.624 54.392-8.5477 27.648-3.7892 57.278-2.93 86.292a27.053 27.053 0 0 1 -1.454 11.808 9.8915 9.8915 0 0 1 -9.2747 6.3447 12.381 12.381 0 0 1 -7.3801 -4.406c-14.011-14.98-13.549-37.826-15.862-58.182-2.5996-22.669-9.6272-44.567-15.619-66.575-2.7097-9.9356-5.2432-20.114-4.6043-30.38 0.63886-10.266 4.9568-20.818 13.438-26.634 15.399-10.53 45.757-6.5209 56.75 9.2306z" fill="#606161" stroke-width="2.203"/>
<rect transform="scale(-1)" x="-300.8" y="-430.44" width="294.19" height="324.37" rx="26.745" fill="#02ccd3" opacity=".52" stroke-width="2.203"/>
<rect transform="scale(-1)" x="-300.8" y="-430.44" width="294.19" height="324.37" rx="26.745" fill="url(#h)" stroke-width="2.203"/>
<rect transform="scale(-1)" x="-797.56" y="-367.87" width="326.93" height="200.5" rx="25.467" fill="#02ccd3" opacity=".52" stroke-width="2.203"/>
<rect transform="scale(-1)" x="-797.56" y="-367.87" width="326.93" height="200.5" rx="25.467" fill="url(#am)" stroke-width="2.203"/>
<rect transform="scale(-1)" x="-601.1" y="-221.42" width="205.39" height="125.97" rx="15.994" fill="#02ccd3" opacity=".52" stroke-width="2.203"/>
<rect transform="scale(-1)" x="-601.1" y="-221.42" width="205.39" height="125.97" rx="15.994" fill="url(#ab)" stroke-width="2.203"/>
<rect transform="scale(-1)" x="-632.84" y="-604.98" width="497.2" height="23.837" fill="#02ccd3" opacity=".52" stroke-width="2.203"/>
<rect transform="scale(-1)" x="-585.59" y="-550.48" width="380.57" height="280.95" rx="27.67" fill="#02ccd3" stroke-width="2.203"/>
<rect transform="scale(-1)" x="-585.59" y="-550.48" width="380.57" height="280.95" rx="27.67" fill="url(#s)" stroke-width="2.203"/>
<rect x="251.81" y="313.52" width="75.894" height="5.5736" fill="url(#g)" stroke-width="2.203"/>
<rect x="251.81" y="324.3" width="46.329" height="5.2211" fill="url(#l)" stroke-width="2.203"/>
<rect x="316.82" y="324.3" width="145.77" height="5.2652" fill="url(#k)" stroke-width="2.203"/>
<rect x="476.23" y="324.3" width="82.04" height="5.2652" fill="url(#j)" stroke-width="2.203"/>
<rect x="275.91" y="335.11" width="63.689" height="5.5075" fill="url(#i)" stroke-width="2.203"/>
<rect x="296.35" y="345.86" width="75.894" height="5.5736" fill="url(#aw)" stroke-width="2.203"/>
<rect x="377.2" y="345.86" width="63.623" height="6.1905" fill="url(#av)" stroke-width="2.203"/>
<rect x="296.24" y="356.64" width="58.6" height="5.2211" fill="url(#au)" stroke-width="2.203"/>
<rect x="360.46" y="356.64" width="120.95" height="5.7939" fill="url(#at)" stroke-width="2.203"/>
<rect x="251.81" y="371.22" width="75.894" height="5.5736" fill="url(#as)" stroke-width="2.203"/>
<rect x="251.81" y="381.99" width="46.329" height="5.2211" fill="url(#ar)" stroke-width="2.203"/>
<rect x="316.82" y="381.99" width="145.77" height="5.2652" fill="url(#aq)" stroke-width="2.203"/>
<rect x="476.23" y="381.99" width="82.04" height="5.2652" fill="url(#ap)" stroke-width="2.203"/>
<rect x="275.91" y="392.77" width="63.689" height="5.5075" fill="url(#ao)" stroke-width="2.203"/>
<rect x="296.35" y="403.56" width="75.894" height="5.5736" fill="url(#an)" stroke-width="2.203"/>
<rect x="377.2" y="403.56" width="63.623" height="6.1905" fill="url(#al)" stroke-width="2.203"/>
<rect x="296.24" y="414.33" width="58.6" height="5.2211" fill="url(#ak)" stroke-width="2.203"/>
<rect x="360.46" y="414.33" width="120.95" height="5.7939" fill="url(#aj)" stroke-width="2.203"/>
<rect x="251.81" y="428.9" width="75.894" height="5.5736" fill="url(#ai)" stroke-width="2.203"/>
<rect x="251.81" y="439.67" width="46.329" height="5.2211" fill="url(#ah)" stroke-width="2.203"/>
<rect x="316.82" y="439.67" width="145.77" height="5.2652" fill="url(#ag)" stroke-width="2.203"/>
<rect x="476.23" y="439.67" width="82.04" height="5.2652" fill="url(#af)" stroke-width="2.203"/>
<rect x="275.91" y="450.44" width="63.689" height="5.5075" fill="url(#ae)" stroke-width="2.203"/>
<rect x="296.35" y="461.21" width="75.894" height="5.5736" fill="url(#ad)" stroke-width="2.203"/>
<rect x="377.2" y="461.21" width="63.623" height="6.1905" fill="url(#ac)" stroke-width="2.203"/>
<rect x="296.24" y="472.01" width="58.6" height="5.2211" fill="url(#aa)" stroke-width="2.203"/>
<rect x="360.46" y="472.01" width="120.95" height="5.7939" fill="url(#z)" stroke-width="2.203"/>
<g transform="matrix(2.203 0 0 2.203 -101.11 18.585)" fill="#02ccd3" opacity=".52">
<rect x="237.35" y="42.71" width="17.14" height="1.26"/>
<rect x="237.35" y="45.15" width="10.46" height="1.18"/>
<rect x="252.03" y="45.15" width="32.92" height="1.19"/>
<rect x="288.02" y="45.15" width="18.53" height="1.19"/>
<rect x="242.79" y="47.58" width="14.38" height="1.24"/>
<rect x="247.41" y="50.02" width="17.14" height="1.26"/>
<rect x="265.66" y="50.02" width="14.36" height="1.4"/>
<rect x="247.38" y="52.45" width="13.23" height="1.18"/>
<rect x="261.89" y="52.45" width="27.31" height="1.31"/>
<rect x="237.35" y="55.74" width="17.14" height="1.26"/>
<rect x="237.35" y="58.17" width="10.46" height="1.18"/>
<rect x="252.03" y="58.17" width="32.92" height="1.19"/>
<rect x="288.02" y="58.17" width="18.53" height="1.19"/>
<rect x="242.79" y="60.6" width="14.38" height="1.24"/>
<rect x="247.41" y="63.04" width="17.14" height="1.26"/>
<rect x="265.66" y="63.04" width="14.36" height="1.4"/>
<rect x="247.38" y="65.47" width="13.23" height="1.18"/>
<rect x="261.89" y="65.47" width="27.31" height="1.31"/>
<rect x="237.35" y="68.76" width="17.14" height="1.26"/>
<rect x="237.35" y="71.2" width="10.46" height="1.18"/>
<rect x="252.03" y="71.2" width="32.92" height="1.19"/>
<rect x="288.02" y="71.2" width="18.53" height="1.19"/>
<rect x="242.79" y="73.63" width="14.38" height="1.24"/>
<rect x="247.41" y="76.06" width="17.14" height="1.26"/>
<rect x="265.66" y="76.06" width="14.36" height="1.4"/>
<rect x="247.38" y="78.5" width="13.23" height="1.18"/>
<rect x="261.89" y="78.5" width="27.31" height="1.31"/>
</g>
<path d="m486.89 565.7c1.5641 4.406 3.0402 9.0324 2.0708 13.571a13.218 13.218 0 0 1 -1.8726 4.406c-4.406 6.8293-14.848 7.8868-22.03 3.7892-7.1818-4.0976-11.235-11.94-13.218-19.827a21.303 21.303 0 0 1 -0.77105 -8.1512c0.63888-4.7805 3.8112-8.812 7.1157-12.337 4.406-4.5822 12.491-10.574 18.417-5.0669 5.3313 4.9348 7.9308 17.029 10.288 23.616z" fill="url(#f)" stroke-width="2.203"/>
<path d="m306.71 564.38a11.323 11.323 0 0 0 -1.2998 5.9261 10.332 10.332 0 0 0 1.5421 3.7011 29.719 29.719 0 0 0 7.292 8.6578 15.135 15.135 0 0 0 10.596 3.2825c5.6397-0.61684 10.112-5.089 13.108-9.9136a27.163 27.163 0 0 0 4.6924 -15.553 19.827 19.827 0 0 0 -8.1071 -14.848c-4.2518-3.0842-13.108-5.882-17.91-2.3572s-7.5123 15.421-9.9136 21.105z" fill="url(#y)" stroke-width="2.203"/>
<path d="m436.82 402.57a5.3313 5.3313 0 0 1 4.6263 0.81512 6.1464 6.1464 0 0 1 1.5201 3.7672 26.987 26.987 0 0 1 0.33045 8.5256 11.698 11.698 0 0 1 -3.8993 7.292 16.875 16.875 0 0 1 -5.5516 2.6877 6.2786 6.2786 0 0 1 -4.7585 0.17624 5.4855 5.4855 0 0 1 -2.3793 -4.0756c-1.7404-8.5257 0.92527-17.514 10.112-19.188z" fill="url(#x)" stroke-width="2.203"/>
<path d="m356.6 399.62a5.4635 5.4635 0 0 0 -2.6656 0 5.5296 5.5296 0 0 0 -3.1723 5.0449 23.44 23.44 0 0 0 0.39655 6.1905 17.095 17.095 0 0 0 4.0095 9.2306 7.4902 7.4902 0 0 0 9.1425 1.5862c9.3628-6.4769 0.55076-20.246-7.7105-22.052z" fill="url(#w)" stroke-width="2.203"/>
<path d="m415.91 461.19a19.541 19.541 0 0 1 0.35248 6.0803c-0.81511 5.6397-6.4328 9.5831-12.072 10.288-5.6397 0.70496-11.279-1.1896-16.545-3.2825a13.218 13.218 0 0 1 -4.406 -2.5114 9.8034 9.8034 0 0 1 -2.5335 -4.8686 35.358 35.358 0 0 1 -0.57278 -9.6492l0.35248-11.368a13.615 13.615 0 0 1 1.2778 -6.4548c2.203-3.7672 7.2479-4.406 11.632-4.6924 5.7498-0.24233 14.408 0 18.197 5.2432s3.3486 15.113 4.3179 21.215z" fill="url(#v)" stroke-width="2.203"/>
<path d="m433.62 368.4a33.684 33.684 0 0 1 1.7624 14.98 280.58 280.58 0 0 1 -3.657 34.874c-1.454 8.6578-3.7451 17.955-10.596 23.418a43.84 43.84 0 0 0 -5.5296 4.406c-1.1896 1.2777-2.0268 2.8639-3.1283 4.2518-5.5736 6.9836-16.809 6.9836-24.475 2.3352-7.6665-4.6484-12.579-12.623-17.073-20.378-4.9568-8.5477-9.8695-17.492-10.751-27.339-0.72699-7.7987 1.1015-16.016-1.8726-23.264-2.203-5.3313-6.7632-9.6051-7.7766-15.267a25.709 25.709 0 0 1 1.3659 -11.279c1.7844-6.4108 4.5162-13.813 11.015-15.553 4.7365-1.2778 9.6272 1.1456 14.54 1.2998 6.2565 0.2203 12.623-3.2825 18.571-1.2998 7.6444 2.5555 11.015 11.368 18.637 14.231 7.6224 2.8639 15.421 6.4768 18.968 14.584z" fill="#606161" stroke-width="2.203"/>
<path d="m458.91 481.31c-22.339-18.527-54.569-18.065-83.318-14.143-11.874 1.6082-23.969 3.7451-34.411 9.6492-17.492 9.9136-27.846 29.08-33.288 48.466-2.8859 10.288-4.406 22.03 1.3659 31.062 6.0583 9.3408 18.131 12.557 29.19 13.791a9.7593 9.7593 0 0 1 4.8026 1.3879 8.5257 8.5257 0 0 1 2.6877 5.3974c3.0842 16.082-3.1723 34.147 5.089 48.268 7.9969 13.637 25.863 17.228 41.615 18.439 20.378 1.5641 42.474 0.99136 59.019-11.015a23.947 23.947 0 0 0 6.8514 -7.0276c2.7317-4.6704 2.886-10.354 2.952-15.752 0.17624-11.764-4.1196-35.424 1.6082-45.801 4.8026-8.6358 18.483-8.6799 23.286-18.549 9.0984-18.77-13.769-52.85-27.45-64.174z" fill="#fff" stroke-width="2.203"/>
<path d="m378.06 631.22 0.15422 25.048a4.8246 4.8246 0 0 1 -0.52873 2.7978 4.406 4.406 0 0 1 -2.952 1.6082c-6.7853 1.5862-13.879 0.68293-20.84 0.70496-6.9615 0.022-14.474 1.2557-19.475 6.1244 7.6004 5.6177 17.404 7.1598 26.811 8.2613q20.885 2.4894 41.857 3.3045a108.41 108.41 0 0 0 27.119 -1.4099 50.295 50.295 0 0 0 21.501 -10.024c-6.1464-6.609-16.324-6.4769-25.313-6.4769a230.74 230.74 0 0 1 -26.172 -1.498 7.1598 7.1598 0 0 1 -5.2652 -2.203 6.9835 6.9835 0 0 1 -0.83714 -4.2959 86.953 86.953 0 0 1 2.0929 -16.523 10.464 10.464 0 0 1 2.0928 -4.9127 11.632 11.632 0 0 1 7.0056 -2.7758 152.78 152.78 0 0 0 29.851 -8.1511 34.037 34.037 0 0 0 10.905 -6.0142c8.6799-7.8868 8.3054-21.479 6.3006-33.045a110.83 110.83 0 0 1 -52.476 14.936c-12.623 0.35249-40.007-5.0669-48.885 7.0937-4.406 6.1464 0.28639 11.83 5.155 16.082 2.1149 1.8065 21.898 11.125 21.898 11.368z" fill="url(#e)" stroke-width="2.203"/>
<rect x="333.87" y="517.39" width="126.41" height="89.596" rx="36.989" fill="#02ccd3" stroke-width="2.203"/>
<rect x="333.87" y="517.39" width="126.41" height="89.596" rx="36.989" fill="url(#u)" stroke-width="2.203"/>
<rect x="333.87" y="525.63" width="126.41" height="89.596" rx="36.989" fill="#02ccd3" stroke-width="2.203"/>
<path d="m416.53 575.09a48.312 48.312 0 0 1 -11.852 3.5248c-11.015 2.0268-23.881 1.5862-31.811-6.4108a14.143 14.143 0 0 1 -2.9741 -4.2298c-2.203-5.3533 0.68294-11.808 5.4194-15.201 4.7365-3.3926 10.751-4.2959 16.545-4.5823 7.0937-0.35249 20.576-1.5641 26.767 3.2164 7.4021 5.7278 6.2566 19.761-2.0928 23.682z" fill="url(#t)" stroke-width="2.203"/>
<rect transform="scale(-1)" x="-403.6" y="-703.74" width="17.25" height="142.4" rx="8.6138" fill="#fff" stroke-width="2.203"/>
<path d="m448.03 802.97c4.406 3.635 5.5075 9.9356 7.4462 15.421 2.6877 7.4902 7.6665 14.298 8.3274 22.228a12.425 12.425 0 0 1 -1.1235 6.8734 11.015 11.015 0 0 1 -9.5611 5.3754 20.929 20.929 0 0 1 -10.861 -3.3045 38.09 38.09 0 0 1 -13.747 -14.121 24.233 24.233 0 0 1 -3.1283 -9.2967c-0.90323-9.9356 9.4069-33.75 22.647-23.176z" fill="#02ccd3" stroke-width="2.203"/>
<path d="m456.25 845a3.9875 3.9875 0 0 1 0 3.7672 3.4147 3.4147 0 0 1 -1.9166 1.0354 12.337 12.337 0 0 1 -8.812 -1.6082 35.843 35.843 0 0 1 -7.0937 -5.7058 51.617 51.617 0 0 1 -8.6138 -9.7373 17.624 17.624 0 0 1 -2.7978 -12.447c2.3352-11.94 12.866-1.2337 16.743 3.1723a63.887 63.887 0 0 1 12.491 21.523z" fill="#606161" stroke-width="2.203"/>
<path d="m361.78 803.21c-4.406 3.635-5.5075 9.9356-7.4462 15.421-2.6877 7.4902-7.6665 14.32-8.3274 22.228a12.513 12.513 0 0 0 1.1235 6.8954 11.015 11.015 0 0 0 9.5611 5.3533 20.708 20.708 0 0 0 10.861 -3.3045 37.914 37.914 0 0 0 13.747 -14.121 24.101 24.101 0 0 0 3.1283 -9.2967c0.8812-9.9356-9.4289-33.838-22.647-23.176z" fill="#02ccd3" stroke-width="2.203"/>
<path d="m352.44 845.86a4.0535 4.0535 0 0 0 0 3.7672 3.4808 3.4808 0 0 0 1.9386 1.0354 12.579 12.579 0 0 0 8.812 -1.6082 36.68 36.68 0 0 0 7.0717 -5.7058 51.176 51.176 0 0 0 8.6358 -9.7593 17.624 17.624 0 0 0 2.7978 -12.425c-2.3572-11.962-12.866-1.2557-16.765 3.1724a64.152 64.152 0 0 0 -12.491 21.523z" fill="#606161" stroke-width="2.203"/>
<path d="m408.99 750.54a23.22 23.22 0 0 1 -11.39 2.203 49.964 49.964 0 0 1 -12.954 -0.94729 9.0544 9.0544 0 0 1 -3.9214 -1.8285 8.9442 8.9442 0 0 1 -2.203 -3.1283c-3.5909-7.9308-7.6444-24.365-2.0708-31.04 6.3667-7.6665 31.635-9.0103 39.654-0.96933 7.7766 7.5343 2.1369 30.269-7.1157 35.711z" fill="#02ccd3" stroke-width="2.203"/>
<path d="m408.99 750.54a23.22 23.22 0 0 1 -11.39 2.203 49.964 49.964 0 0 1 -12.954 -0.94729 9.0544 9.0544 0 0 1 -3.9214 -1.8285 8.9442 8.9442 0 0 1 -2.203 -3.1283c-3.5909-7.9308-7.6444-24.365-2.0708-31.04 6.3667-7.6665 31.635-9.0103 39.654-0.96933 7.7766 7.5343 2.1369 30.269-7.1157 35.711z" fill="url(#r)" stroke-width="2.203"/>
<rect transform="scale(-1)" x="-402.96" y="-825.06" width="11.5" height="74.197" fill="#fff" stroke-width="2.203"/>
<path d="m442.68 831.23c2.5555 2.0929 5.0449 4.7144 8.3274 5.111 2.3793 0.26436 4.7585-0.74901 7.1818-0.74901a13.482 13.482 0 0 1 8.4816 3.8112 14.342 14.342 0 0 1 4.6704 6.609c1.7844 6.0803-3.635 12.733-9.9576 13.35-6.3226 0.61684-12.403-3.7011-15.179-9.3848a20.708 20.708 0 0 0 -2.3352 -4.406 12.799 12.799 0 0 0 -3.1503 -2.4674 92.262 92.262 0 0 0 -30.468 -12.05c-1.8726-0.37451-4.1637-0.55075-5.3533 0.92526a5.1991 5.1991 0 0 0 -0.90324 2.8639 100.72 100.72 0 0 0 -0.59481 13.218 5.0008 5.0008 0 0 0 0.46264 2.4674 8.812 8.812 0 0 0 2.0708 2.0488 8.5917 8.5917 0 0 1 1.1456 10.244 15.685 15.685 0 0 1 -8.6138 6.609c-4.2298 1.5641-9.5611 1.8285-12.711-1.4099a9.0544 9.0544 0 0 1 -1.6523 -9.3408 13.989 13.989 0 0 1 6.609 -7.1818 5.7278 5.7278 0 0 0 2.5996 -1.9827 5.111 5.111 0 0 0 0.39654 -2.6436l-0.30841-9.8254a4.7365 4.7365 0 0 0 -1.4981 -4.0756 4.406 4.406 0 0 0 -2.8639 -0.41858 85.917 85.917 0 0 0 -44.721 16.765c2.3792 1.8505 1.9607 5.86-0.17624 7.9749a11.588 11.588 0 0 1 -8.4155 2.5996 16.853 16.853 0 0 1 -9.4068 -2.7538 9.7373 9.7373 0 0 1 -4.406 -8.4596 9.8475 9.8475 0 0 1 5.882 -7.7546 17.624 17.624 0 0 1 9.9796 -1.0795 20.334 20.334 0 0 0 5.2652 0.41858 15.928 15.928 0 0 0 5.5516 -2.3132 123.06 123.06 0 0 1 49.634 -15.421c14.628-1.2998 32.627-0.99135 44.457 8.7019z" fill="#fff" stroke-width="2.203"/>
<rect transform="scale(-1)" x="-746.01" y="-534.64" width="187.72" height="139.21" rx="24.277" fill="#fff" stroke-width="2.203"/>
<rect transform="scale(-1)" x="-230.42" y="-546.16" width="215.83" height="79.176" rx="23.506" fill="#fff" stroke-width="2.203"/>
<path d="m52.523 197.03 54.921-28.287v8.1952l-46.263 23.066v0.26437l46.263 23.176v8.1952l-54.921-28.287z" fill="#02ccd3" stroke-width="2.203"/>
<path d="m115.04 236.48 33.045-85.917h8.041l-33.045 85.917z" fill="#02ccd3" stroke-width="2.203"/>
<path d="m218.59 203.77-54.943 28.177v-8.3935l46.616-23.176v-0.37452l-46.616-23.176v-8.085l54.943 28.177z" fill="#02ccd3" stroke-width="2.203"/>
<rect transform="scale(-1)" x="-484.67" y="-723.33" width="183.89" height="57.036" rx="27.648" fill="#02ccd3" stroke-width="2.203"/>
<rect transform="scale(-1)" x="-484.67" y="-723.33" width="183.89" height="57.036" rx="27.648" fill="url(#q)" stroke-width="2.203"/>
<g transform="matrix(2.203 0 0 2.203 -101.11 18.585)" fill="#02ccd3" opacity=".52">
<rect x="308.78" y="187.41" width="22.8" height="1.67"/>
<rect x="308.78" y="190.64" width="13.92" height="1.57"/>
<rect x="328.31" y="190.64" width="43.79" height="1.58"/>
<rect x="316.02" y="193.89" width="19.14" height="1.66"/>
<rect x="322.16" y="197.12" width="22.8" height="1.67"/>
<rect x="346.44" y="197.12" width="19.11" height="1.86"/>
<rect x="322.12" y="200.36" width="17.61" height="1.57"/>
<rect x="341.42" y="200.36" width="36.33" height="1.74"/>
<rect x="308.78" y="204.74" width="22.8" height="1.67"/>
<rect x="308.78" y="207.97" width="13.92" height="1.57"/>
<rect x="328.31" y="207.97" width="43.79" height="1.58"/>
<rect x="316.02" y="211.21" width="19.14" height="1.66"/>
<rect x="322.16" y="214.45" width="22.8" height="1.67"/>
<rect x="346.44" y="214.45" width="19.11" height="1.86"/>
<rect x="322.12" y="217.69" width="17.61" height="1.57"/>
<rect x="341.42" y="217.69" width="36.33" height="1.74"/>
</g>
<g transform="matrix(2.203 0 0 2.203 -101.11 18.585)" fill="#02ccd3" opacity=".52">
<rect x="67.64" y="211.46" width="22.8" height="1.67"/>
<rect x="67.64" y="214.7" width="13.92" height="1.57"/>
<rect x="87.17" y="214.7" width="43.79" height="1.58"/>
<rect x="74.88" y="217.94" width="19.14" height="1.66"/>
<rect x="81.02" y="221.18" width="22.8" height="1.67"/>
<rect x="105.31" y="221.18" width="19.11" height="1.86"/>
<rect x="80.99" y="224.41" width="17.61" height="1.57"/>
<rect x="100.28" y="224.41" width="36.33" height="1.74"/>
<rect x="67.64" y="228.79" width="22.8" height="1.67"/>
<rect x="67.64" y="232.03" width="13.92" height="1.57"/>
<rect x="87.17" y="232.03" width="43.79" height="1.58"/>
</g>
<path d="m146.55 739.19c-7.292-14.408-16.214-29.366-14.496-45.426 1.0354-9.7153 5.9481-18.527 10.751-27.053l21.634-38.354c6.609 8.5918 17.492 13.813 21.854 23.726 7.0056 15.928-6.609 33.552-5.882 50.934 0.48467 13.372 9.3628 25.555 8.812 38.927-0.35249 9.7153-15.73 41.549-28.177 40.337-6.587-0.63888-10.354-34.94-14.496-43.091z" fill="#02ccd3" stroke-width="2.203"/>
<path d="m146.55 739.19c-7.292-14.408-16.214-29.366-14.496-45.426 1.0354-9.7153 5.9481-18.527 10.751-27.053l21.634-38.354c6.609 8.5918 17.492 13.813 21.854 23.726 7.0056 15.928-6.609 33.552-5.882 50.934 0.48467 13.372 9.3628 25.555 8.812 38.927-0.35249 9.7153-15.73 41.549-28.177 40.337-6.587-0.63888-10.354-34.94-14.496-43.091z" fill="url(#p)" stroke-width="2.203"/>
<path d="m221.03 733.04c4.9127 0 11.015 0.99135 12.425 5.7278 1.1456 4.1417-2.4894 7.9529-5.9481 10.508-12.05 8.812-27.141 15.575-33.045 29.3-9.8034 22.779-37.561 8.1732-23.198-11.544 5.9481-8.1511 11.015-19.1 18.417-25.907 8.5036-7.8648 20.4-8.2172 31.349-8.085z" fill="#02ccd3" stroke-width="2.203"/>
<path d="m221.03 733.04c4.9127 0 11.015 0.99135 12.425 5.7278 1.1456 4.1417-2.4894 7.9529-5.9481 10.508-12.05 8.812-27.141 15.575-33.045 29.3-9.8034 22.779-37.561 8.1732-23.198-11.544 5.9481-8.1511 11.015-19.1 18.417-25.907 8.5036-7.8648 20.4-8.2172 31.349-8.085z" fill="url(#o)" stroke-width="2.203"/>
<path d="m149.06 743.57c-5.5296-6.3006-13.747-9.4069-21.59-12.315-3.7231-1.3659-8.5036-2.4894-11.015 0.50669a6.9175 6.9175 0 0 0 0 7.9969 24.982 24.982 0 0 0 6.2345 5.838 39.346 39.346 0 0 1 11.566 13.416c2.7978 5.7058 3.5468 12.205 6.0363 18.065 2.4894 5.86 7.6885 11.39 14.033 11.125a12.645 12.645 0 0 0 10.839 -8.9222c2.4674-7.6004-0.81512-11.015-4.8907-16.39-4.5162-5.9702-6.1684-13.615-11.213-19.32z" fill="#02ccd3" stroke-width="2.203"/>
<path d="m149.06 743.57c-5.5296-6.3006-13.747-9.4069-21.59-12.315-3.7231-1.3659-8.5036-2.4894-11.015 0.50669a6.9175 6.9175 0 0 0 0 7.9969 24.982 24.982 0 0 0 6.2345 5.838 39.346 39.346 0 0 1 11.566 13.416c2.7978 5.7058 3.5468 12.205 6.0363 18.065 2.4894 5.86 7.6885 11.39 14.033 11.125a12.645 12.645 0 0 0 10.839 -8.9222c2.4674-7.6004-0.81512-11.015-4.8907-16.39-4.5162-5.9702-6.1684-13.615-11.213-19.32z" fill="url(#n)" stroke-width="2.203"/>
<path d="m196.89 778.78-7.4242 69.461h-7.8648c-6.0583-3.4367-12.183-6.8073-18.307-10.244l-17.844-10.002-6.3226-49.215z" fill="#02ccd3" stroke-width="2.203"/>
<path d="m196.89 778.78-7.4242 69.461h-7.8648c-6.0583-3.4367-12.183-6.8073-18.307-10.244l-17.844-10.002-6.3226-49.215z" fill="url(#m)" stroke-width="2.203"/>
</svg>
